<?xml version="1.0" standalone="no"?>
<!DOCTYPE svg PUBLIC "-//W3C//DTD SVG 20010904//EN"
 "http://www.w3.org/TR/2001/REC-SVG-20010904/DTD/svg10.dtd">
<svg version="1.0" xmlns="http://www.w3.org/2000/svg"
 width="1280.000000pt" height="846.000000pt" viewBox="0 0 1280.000000 846.000000"
 preserveAspectRatio="xMidYMid meet">
<g transform="translate(0.000000,846.000000) scale(0.100000,-0.100000)"
fill="#000000" stroke="none">
<path d="M8055 7778 c-275 -286 -640 -663 -810 -837 -171 -174 -431 -441 -579
-593 -239 -247 -270 -276 -286 -265 -10 7 -195 186 -411 398 -217 212 -650
632 -964 934 -313 301 -643 620 -731 708 -89 88 -166 158 -171 156 -10 -4
-291 -294 -1667 -1716 -302 -313 -660 -680 -796 -818 -136 -137 -501 -513
-810 -835 -310 -322 -568 -586 -572 -588 -41 -17 39 -22 375 -22 l382 1 395
411 c217 226 528 547 691 712 162 166 542 556 845 869 302 312 682 704 844
871 l295 304 110 -106 c61 -59 225 -219 365 -357 140 -138 514 -500 830 -805
316 -305 576 -559 578 -565 1 -5 -58 -70 -132 -144 l-135 -135 -63 59 c-35 32
-301 291 -593 575 -718 700 -948 921 -957 918 -4 -2 -270 -274 -590 -605 -321
-332 -886 -915 -1255 -1297 -370 -382 -673 -697 -673 -700 0 -3 148 -6 328 -6
l328 0 426 442 c235 244 442 457 460 473 18 17 239 244 491 505 252 261 464
479 472 485 12 8 48 -23 167 -141 84 -83 344 -334 578 -559 234 -224 449 -432
479 -461 l54 -52 -146 -149 -146 -148 -58 56 c-32 30 -245 236 -475 457 l-416
402 -144 -148 c-78 -80 -206 -212 -283 -292 -77 -80 -295 -304 -485 -498 -190
-195 -346 -358 -348 -363 -2 -5 151 -9 377 -9 l381 0 69 68 c38 37 155 157
261 267 105 110 195 201 200 203 5 2 111 -97 237 -221 125 -123 251 -245 279
-270 l51 -47 373 0 c327 0 371 2 366 15 -3 8 -1 15 5 15 6 0 71 63 146 140 74
77 138 140 142 140 3 0 78 -70 166 -155 l160 -154 358 -1 c196 0 357 3 357 7
0 4 -13 21 -30 38 l-30 31 134 133 134 134 28 -22 c15 -12 97 -89 181 -171
l153 -150 425 0 c234 0 425 3 425 7 0 4 -17 24 -37 45 l-37 37 60 63 c32 35
138 146 236 247 l177 184 281 -277 281 -276 372 0 372 0 -110 108 c-61 59
-284 276 -495 482 -657 642 -718 700 -728 700 -6 0 -194 -190 -419 -422 -224
-233 -411 -423 -414 -423 -3 0 -78 70 -166 155 l-161 156 367 379 c201 209
456 471 566 582 l200 203 140 -139 c77 -76 457 -443 845 -816 388 -373 770
-743 850 -822 l146 -143 350 2 351 3 -449 435 c-246 239 -774 750 -1172 1135
-398 385 -797 771 -886 858 -90 86 -167 157 -171 157 -10 0 -205 -200 -886
-905 -297 -308 -551 -570 -564 -582 l-24 -21 -145 138 -145 137 39 44 c21 24
211 220 421 434 209 215 572 588 804 830 233 242 439 455 458 473 l34 34 197
-189 c108 -103 332 -321 497 -484 165 -162 676 -658 1135 -1102 459 -444 972
-940 1139 -1102 l303 -295 419 0 c231 0 419 4 419 8 0 4 -267 265 -592 579
-326 314 -669 646 -763 739 -93 92 -539 524 -990 961 -451 436 -1026 993
-1279 1238 -252 245 -461 445 -465 444 -3 0 -231 -235 -506 -521z m-1469
-2737 l64 -64 -69 -76 c-38 -42 -99 -105 -135 -140 l-65 -64 -144 139 -144
139 136 141 136 142 79 -77 c43 -42 107 -105 142 -140z"/>
<path d="M110 4162 c0 -4 267 -264 593 -579 325 -314 669 -646 762 -739 94
-92 539 -524 990 -961 451 -436 1026 -993 1278 -1237 l457 -444 283 287 c156
157 472 482 702 721 230 239 533 552 674 695 141 143 318 323 394 401 l137
141 283 -290 c155 -160 332 -341 392 -401 61 -61 358 -367 659 -681 302 -314
617 -638 699 -722 l151 -152 50 46 c28 25 229 220 446 433 217 212 712 692
1099 1065 388 374 779 753 870 843 91 90 493 479 893 865 401 386 728 705 728
709 0 5 -189 8 -419 8 l-419 0 -319 -307 c-175 -168 -433 -419 -573 -557 -140
-139 -570 -555 -955 -926 -385 -371 -862 -833 -1059 -1028 l-360 -353 -54 53
c-30 29 -291 298 -580 598 -290 300 -667 688 -839 863 -172 174 -313 321 -313
325 1 4 63 72 139 152 l138 144 30 -29 c16 -17 278 -289 583 -605 305 -316
632 -653 727 -749 l173 -175 77 75 c198 190 1495 1444 1898 1835 248 240 508
492 579 560 l129 124 -358 0 -358 0 -286 -283 c-325 -322 -1643 -1595 -1673
-1616 -19 -14 -25 -10 -96 65 -42 43 -198 203 -347 354 -148 151 -378 388
-510 525 l-241 250 161 163 160 163 382 -398 c522 -543 496 -519 523 -500 12
8 142 134 288 279 147 144 437 427 645 627 207 200 377 365 377 367 0 2 -165
4 -368 4 l-367 0 -280 -270 c-154 -148 -283 -269 -287 -270 -6 0 -217 213
-443 448 l-89 92 -385 0 -386 0 -155 -155 -156 -156 -138 141 c-88 90 -136
146 -132 156 5 12 -43 14 -334 14 -268 0 -338 -3 -335 -13 3 -6 -57 -77 -133
-157 l-138 -144 -156 157 -156 157 -383 0 -384 0 -270 -274 -270 -275 -278
274 -279 275 -371 0 -372 0 110 -108 c61 -59 351 -342 646 -630 295 -288 546
-530 557 -538 20 -14 33 -3 280 248 142 145 342 350 443 456 l184 193 158
-162 c87 -89 156 -166 155 -170 -2 -5 -230 -241 -508 -526 -278 -285 -539
-553 -580 -596 -41 -43 -80 -76 -87 -75 -7 2 -72 62 -145 134 -73 72 -450 436
-838 809 -388 373 -770 743 -850 822 l-146 143 -350 -2 -351 -3 449 -435 c246
-239 774 -750 1172 -1135 398 -385 791 -765 873 -845 82 -80 157 -151 166
-158 14 -12 52 23 324 300 253 256 535 548 1169 1207 l33 35 58 -60 c32 -32
96 -99 143 -147 l84 -88 -175 -177 c-97 -97 -360 -368 -584 -602 -225 -234
-549 -567 -720 -741 l-312 -316 -359 349 c-197 191 -795 771 -1329 1288 -533
517 -1107 1072 -1274 1235 l-303 295 -419 0 c-231 0 -419 -3 -419 -8z m6414
-504 l135 -141 -136 -141 c-75 -78 -139 -141 -143 -141 -4 0 -68 64 -143 141
l-137 141 136 142 c75 77 140 141 144 141 5 0 69 -64 144 -142z"/>
</g>
</svg>
